<svg xmlns="http://www.w3.org/2000/svg" viewBox="0 0 283.99 183.19"><defs><style>.cls-1{fill:#ad5e4c;}.cls-2{fill:#20120c;}.cls-3{fill:#fff;}.cls-4{fill:#3a2c32;}.cls-10,.cls-11,.cls-18,.cls-5,.cls-7,.cls-9{fill:none;}.cls-5{stroke:#120e24;stroke-width:0.86px;}.cls-10,.cls-11,.cls-18,.cls-5,.cls-7{stroke-miterlimit:10;}.cls-6{fill:#ffc134;}.cls-7,.cls-9{stroke:#20120c;}.cls-7{stroke-width:2.01px;}.cls-8{fill:#4a280d;}.cls-9{stroke-linecap:round;stroke-linejoin:round;stroke-width:0.5px;}.cls-10,.cls-11{stroke:#fff;}.cls-10{stroke-width:0.3px;}.cls-11{stroke-width:0.29px;}.cls-12{fill:#3db7de;}.cls-13{fill:#95ddf7;}.cls-14{fill:#fbfff9;}.cls-15{fill:#eecace;}.cls-16{fill:#fbc55c;}.cls-17{fill:#f2f2f2;}.cls-18{stroke:#3a2c32;stroke-width:1.03px;}</style></defs><g id="Capa_2" data-name="Capa 2"><g id="OBJECTS"><polygon class="cls-1" points="170.42 174.3 168.44 155.43 159.69 156.82 163.17 176.22 170.56 174.55 170.42 174.3"/><path class="cls-2" d="M161.7,172.81s6.49,2.09,9.13-2.22l15.89,6.66-26.48,1.94Z"/><polygon class="cls-3" points="186.88 179.47 160.4 181.41 160.24 179.19 186.72 177.25 186.88 179.47"/><path class="cls-3" d="M170.94,174.05a.61.61,0,0,0,.17-.15,8.94,8.94,0,0,1,1.83-2.1.39.39,0,0,0,.08-.57.45.45,0,0,0-.6-.07,9.25,9.25,0,0,0-2,2.32.39.39,0,0,0,.14.56A.48.48,0,0,0,170.94,174.05Z"/><path class="cls-3" d="M173.1,174.92a.4.4,0,0,0,.17-.15,8.5,8.5,0,0,1,1.83-2.09.4.4,0,0,0,.07-.58.43.43,0,0,0-.59-.06,9.08,9.08,0,0,0-2,2.31.39.39,0,0,0,.14.56A.42.42,0,0,0,173.1,174.92Z"/><path class="cls-3" d="M175.26,175.8a.57.57,0,0,0,.16-.15,9.1,9.1,0,0,1,1.84-2.1.39.39,0,0,0,.07-.57.45.45,0,0,0-.6-.07,9.57,9.57,0,0,0-2,2.32.37.37,0,0,0,.14.55A.45.45,0,0,0,175.26,175.8Z"/><path class="cls-4" d="M151.05,79.12l3.51,9.25,14.67,37,3.38,38.75s-16.13,1.66-16.69,1.53-4.15-36.21-4.15-36.21L135.41,95.58l1.79-18.66Z"/><polygon class="cls-1" points="111.54 170.69 120.28 153.73 111.58 151.68 103.94 169.78 111.47 171.42 111.54 170.69"/><path class="cls-2" d="M104.36,165.87s4.84,4.8,9.14,2.14l11.17,13.13L100.18,170.9Z"/><polygon class="cls-3" points="123.81 183.19 99.31 172.95 100.17 170.9 124.67 181.14 123.81 183.19"/><path class="cls-3" d="M112,171.14a.38.38,0,0,0,.21,0,8.56,8.56,0,0,1,2.59-1,.4.4,0,0,0,.32-.48.44.44,0,0,0-.5-.33,9.56,9.56,0,0,0-2.86,1.14.39.39,0,0,0-.13.56A.43.43,0,0,0,112,171.14Z"/><path class="cls-3" d="M113.57,172.9a.46.46,0,0,0,.22-.06,8.91,8.91,0,0,1,2.58-1,.39.39,0,0,0,.32-.47.43.43,0,0,0-.5-.33,9,9,0,0,0-2.86,1.14.39.39,0,0,0-.13.56A.44.44,0,0,0,113.57,172.9Z"/><path class="cls-3" d="M115.1,174.66a.46.46,0,0,0,.22-.06,8.91,8.91,0,0,1,2.58-1,.4.4,0,0,0,.33-.48.45.45,0,0,0-.51-.33,9.67,9.67,0,0,0-2.86,1.14.4.4,0,0,0-.13.57A.46.46,0,0,0,115.1,174.66Z"/><path class="cls-4" d="M143.29,93.6l-7,35L117.8,163.7l-14.71-4.88,13.28-33.53,3.43-23.66s.82-18.77,7.61-26.3l14.85,6Z"/><line class="cls-5" x1="140.74" y1="106.85" x2="146.34" y2="101.3"/><polygon class="cls-1" points="157.4 46.34 164.15 63.66 155.23 71.25 151.7 48.97 157.4 46.34"/><path class="cls-6" d="M148.9,34.54s6.08,1.79,12.65,13.75l-11,5.73Z"/><polygon class="cls-6" points="131.66 30.86 117.91 37.17 119.9 70.63 119.84 92.52 157.72 89.68 152.73 42.26 148.9 34.54 139.16 30.86 131.66 30.86"/><path class="cls-1" d="M123.44,55.22l-7.7,17.61a5.24,5.24,0,0,1-6.95,2.88h0a5.23,5.23,0,0,1-2.94-6.35l5.75-18.5Z"/><path class="cls-6" d="M122.67,57l4.51-9.66a7.67,7.67,0,0,0-3.78-9.76h0a7.3,7.3,0,0,0-10,3.79L109,52.3Z"/><line class="cls-7" x1="199.45" y1="159.06" x2="104.61" y2="9.77"/><path class="cls-2" d="M195.69,160.18c.2.51,2.43,4,2.43,4h8.32l-2.15-4Z"/><path class="cls-6" d="M205.23,160.18h-11.3a2.41,2.41,0,0,1-2.41-2.41h0a2.4,2.4,0,0,1,2.41-2.4h11.3a2.39,2.39,0,0,1,2.4,2.4h0A2.4,2.4,0,0,1,205.23,160.18Z"/><path class="cls-6" d="M198.12,164.17s-8.34,1,.72,11l.21.19a25.77,25.77,0,0,0,17.42,6.78h28.1a1.52,1.52,0,0,0,1.52-1.52h0a1.53,1.53,0,0,0-1.4-1.52L230.06,178s.7-5.58-12.54-6.27c0,0,0-7.21-11.08-7.51Z"/><path class="cls-1" d="M156.2,63.25l-8.94,12.59,5.47,4.42,10.7-11a4.7,4.7,0,0,0-.13-6.69h0A4.71,4.71,0,0,0,156.2,63.25Z"/><path class="cls-1" d="M151.59,84.57a6.18,6.18,0,1,0-8.44-2.27A6.18,6.18,0,0,0,151.59,84.57Z"/><path class="cls-1" d="M142.59,77.46s-2.06-1.92.62-3.74,7.14-2.71,10.65,2.42Z"/><path class="cls-1" d="M135,68a6.18,6.18,0,1,1,6.6-5.71A6.17,6.17,0,0,1,135,68Z"/><path class="cls-1" d="M140,57.7s1-2.63-2.18-3.11-7.61.67-8.54,6.81Z"/><path class="cls-1" d="M106.4,73.88h0A4.86,4.86,0,0,0,113.71,76L135.64,65l-1.81-6.78-25.22,9.62A4.86,4.86,0,0,0,106.4,73.88Z"/><path class="cls-8" d="M144.33,16.24a3.44,3.44,0,1,0,4-2.88A3.51,3.51,0,0,0,144.33,16.24Z"/><path class="cls-1" d="M141.87,24.14l-.93,8.44c-.32,3-2.27,4.35-5.09,4h0c-2.41-.29-4.93-1.75-4.54-4.36L132.38,19Z"/><path class="cls-1" d="M139.08,27.41h0c4.82.54,9.23-2.94,9.82-7l1.18-8.48a9.4,9.4,0,0,0-7.44-10.71h0C137.64.32,132,3.61,131,8.77l-.84,6.62A10.67,10.67,0,0,0,139.08,27.41Z"/><path class="cls-2" d="M149.09,19s-.22,3-2.6,3.57a7.23,7.23,0,0,0-6.74-.84c-4.2,1.33-7.26-7.08-7.26-7.08l-2.24,4s-.68,9.92,10.85,9.89c2,0,7.45-1.1,7.8-8.14"/><path class="cls-2" d="M149.85,7.77a37.18,37.18,0,0,1-14.88-1l-.05,3.31a10.44,10.44,0,0,0-2.43,4.61L130,12.93l-.62-3.85a7.24,7.24,0,0,1,1.13-5.27c1.89-2.69,5.69-4.38,11.06-3.63a9.42,9.42,0,0,1,8.31,7.59Z"/><polyline class="cls-9" points="144.16 18.93 144.15 20.64 142.95 20.55"/><path class="cls-2" d="M140.15,11.63s2,0,1.92.88c0,0-.06.56-1.79.49s-2.17-.26-2.27-.81S139.23,11.53,140.15,11.63Z"/><path class="cls-2" d="M147.69,12.39s-1.61-.35-1.82.41c0,0-.14.52,1.27.8s1.9.14,2.08-.28S148.47,12.49,147.69,12.39Z"/><path class="cls-2" d="M146,17.24a.83.83,0,1,0,.95-.74A.85.85,0,0,0,146,17.24Z"/><path class="cls-2" d="M138.78,16.19a.85.85,0,0,0,.71,1,.86.86,0,0,0,.24-1.7A.84.84,0,0,0,138.78,16.19Z"/><path class="cls-10" d="M143.13,17.73A3.63,3.63,0,1,1,140,13.68,3.63,3.63,0,0,1,143.13,17.73Z"/><path class="cls-11" d="M151.72,18.77a3.49,3.49,0,1,1-3-4A3.56,3.56,0,0,1,151.72,18.77Z"/><line class="cls-11" x1="143.12" y1="17.96" x2="144.81" y2="18.14"/><line class="cls-11" x1="135.98" y1="16.43" x2="131.97" y2="14.02"/><path class="cls-1" d="M125.78,14.74a3.48,3.48,0,0,0,2.74,4.07,3.44,3.44,0,0,0,4-2.85,3.49,3.49,0,0,0-2.73-4.08A3.45,3.45,0,0,0,125.78,14.74Z"/><path class="cls-9" d="M130.13,16.59s.44-2.51-1.95-2.54"/><path class="cls-1" d="M131.74,30.92l-4.53,2S127.14,40,138,39c0,0,6.15-.87,6-6.27l-6.16-2.54Z"/><polygon class="cls-12" points="43.93 152.87 48.15 181.98 78.04 181.98 81.25 152.87 43.93 152.87"/><rect class="cls-13" x="40.64" y="147.13" width="43.9" height="5.74"/><path class="cls-4" d="M84.54,152.34v.53H82.69c1.86,2.69,2.55,4.94,2,6.7a4.63,4.63,0,0,1-2.79,2.84,11.33,11.33,0,0,1-3.59.91c-8.76.84-15.73-.32-20.7-3.45a15.46,15.46,0,0,1-7.23-10l-1.93.16c0,.26.94,6.58,7.92,11,4.29,2.71,9.87,4.07,16.65,4.07,1.76,0,3.61-.1,5.53-.28a13.65,13.65,0,0,0,4.32-1.1,6.32,6.32,0,0,0,3.72-3.83C87.23,157.84,86.52,155.3,84.54,152.34Z"/><path class="cls-14" d="M258.11,38.43c0-4.77-4-7.83-9-7.82s-9,3.09-9,7.86a8.57,8.57,0,0,0,4.32,7.37l9.35,0A8.58,8.58,0,0,0,258.11,38.43Z"/><rect class="cls-15" x="183.63" y="45.79" width="90.04" height="4.58" transform="translate(-0.11 0.5) rotate(-0.13)"/><rect class="cls-14" x="191.55" y="16.39" width="5.83" height="29.35" rx="0.89" transform="translate(-0.07 0.43) rotate(-0.13)"/><rect class="cls-14" x="198.71" y="16.37" width="5.83" height="29.35" rx="0.89" transform="translate(-0.07 0.44) rotate(-0.13)"/><rect class="cls-14" x="205.67" y="16.36" width="5.83" height="29.35" rx="0.89" transform="translate(-0.07 0.46) rotate(-0.13)"/><path class="cls-16" d="M229.89,42.57l-3.62,2.26a.78.78,0,0,1-1.12-.32L212.33,20.66a.93.93,0,0,1,.3-1.22l3.61-2.26a.79.79,0,0,1,1.13.32l12.82,23.85A.93.93,0,0,1,229.89,42.57Z"/><path class="cls-16" d="M238,42.55l-3.62,2.27a.79.79,0,0,1-1.12-.33L220.41,20.64a.91.91,0,0,1,.3-1.21l3.61-2.27a.79.79,0,0,1,1.13.32l12.82,23.85A.93.93,0,0,1,238,42.55Z"/><path class="cls-17" d="M69.36,33.38a15,15,0,1,1-15.08-15A15.06,15.06,0,0,1,69.36,33.38Z"/><path class="cls-3" d="M54.28,19.78A13.45,13.45,0,1,0,67.76,33.19,13.45,13.45,0,0,0,54.28,19.78Z"/><path class="cls-15" d="M54.35,50.69A17.47,17.47,0,1,1,71.78,33.18,17.49,17.49,0,0,1,54.35,50.69Zm-.07-30A12.51,12.51,0,1,0,66.82,33.19,12.52,12.52,0,0,0,54.28,20.71Z"/><path class="cls-2" d="M54.38,36.17a.82.82,0,0,1-.73-.44l-3.57-6.95A.81.81,0,1,1,51.52,28L55.1,35a.82.82,0,0,1-.35,1.1A.84.84,0,0,1,54.38,36.17Z"/><path class="cls-2" d="M51.45,35.22a.4.4,0,0,1-.4-.33.41.41,0,0,1,.33-.47L64.66,32.1a.41.41,0,1,1,.14.8L51.52,35.22Z"/><line class="cls-18" y1="182.48" x2="283.99" y2="182.48"/></g></g></svg>