<svg xmlns="http://www.w3.org/2000/svg" viewBox="0 0 135.9 271.23"><defs><style>.cls-1,.cls-5{fill:#bababa;}.cls-1,.cls-10,.cls-2,.cls-3,.cls-4,.cls-6{stroke:#3c3c3b;stroke-miterlimit:10;}.cls-1,.cls-2,.cls-3,.cls-4,.cls-6{stroke-width:0.5px;}.cls-2,.cls-8{fill:#318272;}.cls-3,.cls-7{fill:#43b6a0;}.cls-4,.cls-9{fill:#fff;}.cls-6{fill:none;}.cls-10{fill:#3c3c3b;}</style></defs><g id="Recogedor"><path class="cls-1" d="M86.91,130.79V258.6c0,3.44-1.66,6.24-3.71,6.24s-3.71-2.8-3.71-6.24V130.79Z" transform="translate(-41.8 -20.03)"/><path class="cls-2" d="M87.28,104.3v20.93H79.13a1,1,0,0,1,0-.17V104.3c0-3.56,1.6-6.48,3.66-6.84h0a1.9,1.9,0,0,1,.41,0,1.93,1.93,0,0,1,.42,0h0a3.83,3.83,0,0,1,2.46,2A9.72,9.72,0,0,1,87.28,104.3Z" transform="translate(-41.8 -20.03)"/><path class="cls-2" d="M88.15,126.88v2.26c0,.91-.41,1.65-.91,1.65H79.16c-.5,0-.91-.74-.91-1.65v-2.26c0-.91.41-1.65.91-1.65h8.08C87.74,125.23,88.15,126,88.15,126.88Z" transform="translate(-41.8 -20.03)"/><path class="cls-3" d="M137.16,262.64,96.84,290.92,83.7,274.3c-7.58-9.6-10.75-16.16,0-24.69l7-5.52c10.81-8.53,25.71-7.67,33.29,1.92Z" transform="translate(-41.8 -20.03)"/><path class="cls-2" d="M132.87,261.91,98.28,286.17,87,271.91c-6.5-8.23-9.23-13.86,0-21.18L93,246c9.27-7.33,22.06-6.59,28.56,1.65Z" transform="translate(-41.8 -20.03)"/><path class="cls-2" d="M77.56,264.57,77,277.3a5,5,0,0,0,3.3,4.91L93.7,287Z" transform="translate(-41.8 -20.03)"/><polygon class="cls-3" points="51.9 266.92 92.63 239.16 95.36 242.61 55.04 270.89 51.9 266.92"/><path class="cls-3" d="M127.5,263.56l-7.57-4.87a22.44,22.44,0,0,0-24.15-.1l-12.58,8c-.31.2,13.59,17.95,13.82,18l30.66-20.79" transform="translate(-41.8 -20.03)"/></g><g id="Escoba"><path class="cls-4" d="M71.12,50.26,134.68,215.6c1.71,4.45,1.55,8.67-.35,9.41s-4.86-2.29-6.57-6.74L64.2,52.92Z" transform="translate(-41.8 -20.03)"/><polygon class="cls-5" points="22.4 32.89 24.33 32.15 89.98 200 86.76 201.24 22.4 32.89"/><path class="cls-6" d="M71.12,50.26,134.68,215.6c1.71,4.45,1.55,8.67-.35,9.41s-4.86-2.29-6.57-6.74L64.2,52.92Z" transform="translate(-41.8 -20.03)"/><path class="cls-7" d="M71,46.17l.81,2.11c.33.85.22,1.68-.25,1.86L64,53c-.47.18-1.12-.36-1.44-1.21l-.82-2.11c-.32-.85-.21-1.69.26-1.87L69.53,45C70,44.77,70.65,45.32,71,46.17Z" transform="translate(-41.8 -20.03)"/><path class="cls-8" d="M65.79,52.2l-2.26.86a.31.31,0,0,1-.4-.18l-1.45-3.79c0-.56.1-1,.44-1.15l1.74-.67Z" transform="translate(-41.8 -20.03)"/><path class="cls-6" d="M71.53,50.14,64,53a.61.61,0,0,1-.56-.08,1.5,1.5,0,0,1-.56-.54,2.55,2.55,0,0,1-.32-.59l-.81-2.11a2.53,2.53,0,0,1-.18-.72c-.05-.56.1-1,.44-1.15l1.74-.67L69.54,45c.47-.18,1.11.37,1.44,1.22l.81,2.11C72.12,49.13,72,50,71.53,50.14Z" transform="translate(-41.8 -20.03)"/><path class="cls-3" d="M62,25.4l7.45,19.38a1,1,0,0,1,0,.16l-7.6,2.93a1.11,1.11,0,0,1-.07-.16L54.35,28.33c-1.28-3.32-.83-6.62,1-7.7h0a2.58,2.58,0,0,1,.37-.19,2.08,2.08,0,0,1,.41-.11h0a3.85,3.85,0,0,1,3,1A9.87,9.87,0,0,1,62,25.4Z" transform="translate(-41.8 -20.03)"/><path class="cls-8" d="M64.62,46.9l-2.55,1L53.72,26a6.18,6.18,0,0,1,.9-4.72Z" transform="translate(-41.8 -20.03)"/><path class="cls-6" d="M69.48,44.94l-4.86,1.87-2.55,1-.2.08a1,1,0,0,1-.07-.15L54.35,28.33A11.67,11.67,0,0,1,53.72,26a6.18,6.18,0,0,1,.9-4.72,2.81,2.81,0,0,1,.69-.6h0a1.69,1.69,0,0,1,.38-.19,1.82,1.82,0,0,1,.4-.11h0a3.8,3.8,0,0,1,3,1A9.78,9.78,0,0,1,62,25.4l7.45,19.38Z" transform="translate(-41.8 -20.03)"/><path class="cls-3" d="M137.54,219.58l.81,2.11c.33.85.21,1.69-.26,1.87l-7.53,2.9c-.47.18-1.12-.37-1.45-1.22l-.81-2.11c-.32-.85-.21-1.68.26-1.86l7.54-2.9C136.57,218.19,137.22,218.73,137.54,219.58Z" transform="translate(-41.8 -20.03)"/><path class="cls-9" d="M144.85,221.88h0a23,23,0,0,1,23,23v38a0,0,0,0,1,0,0h-46a0,0,0,0,1,0,0v-38a23,23,0,0,1,23-23Z" transform="translate(-122.71 48.75) rotate(-21.03)"/><line class="cls-9" x1="81.16" y1="224.99" x2="98.8" y2="270.89"/><line class="cls-9" x1="87.8" y1="222.44" x2="105.44" y2="268.34"/><line class="cls-9" x1="94.44" y1="219.89" x2="112.09" y2="265.78"/><line class="cls-9" x1="101.09" y1="217.33" x2="118.73" y2="263.23"/><line class="cls-9" x1="107.73" y1="214.78" x2="125.37" y2="260.67"/><line class="cls-9" x1="114.38" y1="212.22" x2="132.02" y2="258.12"/><path class="cls-5" d="M124.1,231.44s-1.95,8.95,17.16,55.06l-6.91,2.59-14.28-37.36S117,240.41,124.1,231.44Z" transform="translate(-41.8 -20.03)"/><path class="cls-6" d="M145,221.92h0a23,23,0,0,1,23,23v38a0,0,0,0,1,0,0H122a0,0,0,0,1,0,0v-38A23,23,0,0,1,145,221.92Z" transform="translate(-122.71 48.8) rotate(-21.03)"/><line class="cls-6" x1="81.3" y1="225.03" x2="98.94" y2="270.93"/><line class="cls-6" x1="87.94" y1="222.48" x2="105.58" y2="268.37"/><line class="cls-6" x1="94.58" y1="219.92" x2="112.23" y2="265.82"/><line class="cls-6" x1="101.23" y1="217.37" x2="118.87" y2="263.26"/><line class="cls-6" x1="107.87" y1="214.81" x2="125.52" y2="260.71"/><line class="cls-6" x1="114.52" y1="212.26" x2="132.16" y2="258.16"/></g><g id="Telaraña"><path class="cls-4" d="M66.13,58,81.07,97.46s-9,22.54-1.58,55.61" transform="translate(-41.8 -20.03)"/><polyline class="cls-4" points="2.98 55.11 39.27 77.43 2.98 101.53"/><path class="cls-6" d="M77.87,144.37" transform="translate(-41.8 -20.03)"/><path class="cls-6" d="M49.08,118.71" transform="translate(-41.8 -20.03)"/><path class="cls-6" d="M66.67,59.33h0a28.12,28.12,0,0,1-15.5,17.52l-2.09.94.07.31a116.43,116.43,0,0,1,2.3,39h0" transform="translate(-41.8 -20.03)"/><path class="cls-6" d="M77.87,144.37,73,137.52a77.59,77.59,0,0,0-21.53-20.39h0V162" transform="translate(-41.8 -20.03)"/><path class="cls-6" d="M70.72,70.07h0A20.6,20.6,0,0,1,59,83.78l-.11,0,.31,1.69a91.46,91.46,0,0,1,1,25.8h0a25.42,25.42,0,0,1,13.27,13.27l3.2,7.41" transform="translate(-41.8 -20.03)"/><path class="cls-6" d="M74.68,80.56l.1,1a8.64,8.64,0,0,1-5.31,8.78h0a19.67,19.67,0,0,1,.32,14.3l-.32.88s5.5,2.82,6,5.88l1.41,7.32" transform="translate(-41.8 -20.03)"/><circle class="cls-10" cx="9.65" cy="143.81" r="2.34"/><polyline class="cls-6" points="11.03 142.92 14.91 141.53 19.15 143.81"/><polyline class="cls-6" points="11.04 143.99 14.38 143.19 17.35 146.06"/><polyline class="cls-6" points="9.63 145.52 12.59 144.55 15.09 147.5"/><polyline class="cls-6" points="8.24 142.92 4.36 141.53 0.12 143.81"/><polyline class="cls-6" points="8.23 143.99 4.89 143.19 1.92 146.06"/><polyline class="cls-6" points="9.63 145.52 6.68 144.55 4.18 147.5"/></g></svg>